<?xml version="1.0" encoding="utf-8"?>
<!-- Generator: Adobe Illustrator 16.0.0, SVG Export Plug-In . SVG Version: 6.00 Build 0)  -->
<!DOCTYPE svg PUBLIC "-//W3C//DTD SVG 1.1//EN" "http://www.w3.org/Graphics/SVG/1.1/DTD/svg11.dtd">
<svg version="1.1" id="Layer_1" xmlns="http://www.w3.org/2000/svg" xmlns:xlink="http://www.w3.org/1999/xlink" x="0px" y="0px"
	 width="155.779px" height="350.667px" viewBox="0 0 155.779 350.667" enable-background="new 0 0 155.779 350.667"
	 xml:space="preserve">
<path fill="#CC99CC" d="M154.667,109c-2.5-3.5-35.418-55.667-35.418-55.667L87,52.666l-0.879-6.153
	c2.767-2.521,9.951-10.26,9.547-22.388C95.167,9.125,84.779,0.167,77.779,0c-6.5,0.167-17.333,9.125-17.833,24.125
	c-0.409,12.282,7,20.062,9.699,22.48l-0.866,6.061l-32.25,0.667c0,0-32.917,52.167-35.417,55.667s-0.002,5.168-0.002,5.168
	l34.41,32.689l0.006-0.003c-1.093,1.49-1.747,3.322-1.747,5.312c0,4.971,4.029,9,9,9c0.546,0,1.078-0.057,1.597-0.15
	c0.64,24.144-1.264,27.275-1.264,27.275L26.299,327.116c-4.417,1.85-7.52,6.213-7.52,11.301c0,6.766,5.484,12.25,12.25,12.25
	s12.25-5.484,12.25-12.25c0-4.42-2.349-8.282-5.859-10.436l40.359-144.314l40.483,144.372c-3.456,2.166-5.763,5.998-5.763,10.378
	c0,6.766,5.484,12.25,12.25,12.25s12.25-5.484,12.25-12.25c0-5.088-3.104-9.451-7.52-11.301l-16.813-138.824
	c0,0-1.903-3.131-1.264-27.275c0.519,0.093,1.051,0.15,1.597,0.15c4.971,0,9-4.029,9-9c0-1.99-0.653-3.822-1.746-5.312l0.006,0.003
	l34.41-32.689C154.669,114.168,157.167,112.5,154.667,109z M42.779,143.167c-0.235,0-0.466,0.018-0.697,0.035l-23.323-33.02
	c8.5-9,21.479-18.484,21.479-18.484c0,5,2.959,44.531,2.959,44.531c0.156,2.44,0.294,4.761,0.418,6.979
	C43.339,143.183,43.061,143.167,42.779,143.167z M113.697,143.202c-0.23-0.018-0.462-0.035-0.697-0.035
	c-0.282,0-0.561,0.017-0.836,0.042c0.125-2.219,0.264-4.54,0.419-6.979c0,0,2.959-39.531,2.959-44.531
	c0,0,12.979,9.484,21.479,18.484L113.697,143.202z"/>
</svg>
